<svg id="visual" viewBox="0 0 900 600" width="900" height="600" xmlns="http://www.w3.org/2000/svg" xmlns:xlink="http://www.w3.org/1999/xlink" version="1.1"><rect x="0" y="0" width="900" height="600" fill="#001220"></rect><path d="M0 381L21.5 384.3C43 387.7 86 394.3 128.8 398.8C171.7 403.3 214.3 405.7 257.2 403.3C300 401 343 394 385.8 396.8C428.7 399.7 471.3 412.3 514.2 411.7C557 411 600 397 642.8 395C685.7 393 728.3 403 771.2 403C814 403 857 393 878.5 388L900 383L900 601L878.5 601C857 601 814 601 771.2 601C728.3 601 685.7 601 642.8 601C600 601 557 601 514.2 601C471.3 601 428.7 601 385.8 601C343 601 300 601 257.2 601C214.3 601 171.7 601 128.8 601C86 601 43 601 21.5 601L0 601Z" fill="#fa7268"></path><path d="M0 431L21.5 429C43 427 86 423 128.8 417.8C171.7 412.7 214.3 406.3 257.2 409.3C300 412.3 343 424.7 385.8 424.7C428.7 424.7 471.3 412.3 514.2 413.5C557 414.7 600 429.3 642.8 432.5C685.7 435.7 728.3 427.3 771.2 424C814 420.7 857 422.3 878.5 423.2L900 424L900 601L878.5 601C857 601 814 601 771.2 601C728.3 601 685.7 601 642.8 601C600 601 557 601 514.2 601C471.3 601 428.7 601 385.8 601C343 601 300 601 257.2 601C214.3 601 171.7 601 128.8 601C86 601 43 601 21.5 601L0 601Z" fill="#f56967"></path><path d="M0 456L21.5 457.7C43 459.3 86 462.7 128.8 463C171.7 463.3 214.3 460.7 257.2 454.2C300 447.7 343 437.3 385.8 438.2C428.7 439 471.3 451 514.2 456.2C557 461.3 600 459.7 642.8 458.8C685.7 458 728.3 458 771.2 458.8C814 459.7 857 461.3 878.5 462.2L900 463L900 601L878.5 601C857 601 814 601 771.2 601C728.3 601 685.7 601 642.8 601C600 601 557 601 514.2 601C471.3 601 428.7 601 385.8 601C343 601 300 601 257.2 601C214.3 601 171.7 601 128.8 601C86 601 43 601 21.5 601L0 601Z" fill="#ef5f67"></path><path d="M0 450L21.5 455C43 460 86 470 128.8 469.7C171.7 469.3 214.3 458.7 257.2 456.8C300 455 343 462 385.8 463.5C428.7 465 471.3 461 514.2 461.8C557 462.7 600 468.3 642.8 473.5C685.7 478.7 728.3 483.3 771.2 485.5C814 487.7 857 487.3 878.5 487.2L900 487L900 601L878.5 601C857 601 814 601 771.2 601C728.3 601 685.7 601 642.8 601C600 601 557 601 514.2 601C471.3 601 428.7 601 385.8 601C343 601 300 601 257.2 601C214.3 601 171.7 601 128.8 601C86 601 43 601 21.5 601L0 601Z" fill="#e95667"></path><path d="M0 508L21.5 504.8C43 501.7 86 495.3 128.8 494C171.7 492.7 214.3 496.3 257.2 496.5C300 496.7 343 493.3 385.8 493C428.7 492.7 471.3 495.3 514.2 494.3C557 493.3 600 488.7 642.8 488.2C685.7 487.7 728.3 491.3 771.2 489.7C814 488 857 481 878.5 477.5L900 474L900 601L878.5 601C857 601 814 601 771.2 601C728.3 601 685.7 601 642.8 601C600 601 557 601 514.2 601C471.3 601 428.7 601 385.8 601C343 601 300 601 257.2 601C214.3 601 171.7 601 128.8 601C86 601 43 601 21.5 601L0 601Z" fill="#e34c67"></path><path d="M0 520L21.5 515.7C43 511.3 86 502.7 128.8 502.8C171.7 503 214.3 512 257.2 514.8C300 517.7 343 514.3 385.8 512.3C428.7 510.3 471.3 509.7 514.2 509.7C557 509.7 600 510.3 642.8 509.3C685.7 508.3 728.3 505.7 771.2 507.2C814 508.7 857 514.3 878.5 517.2L900 520L900 601L878.5 601C857 601 814 601 771.2 601C728.3 601 685.7 601 642.8 601C600 601 557 601 514.2 601C471.3 601 428.7 601 385.8 601C343 601 300 601 257.2 601C214.3 601 171.7 601 128.8 601C86 601 43 601 21.5 601L0 601Z" fill="#dc4267"></path><path d="M0 544L21.5 542C43 540 86 536 128.8 532.2C171.7 528.3 214.3 524.7 257.2 525.8C300 527 343 533 385.8 532C428.7 531 471.3 523 514.2 522.5C557 522 600 529 642.8 529C685.7 529 728.3 522 771.2 521.3C814 520.7 857 526.3 878.5 529.2L900 532L900 601L878.5 601C857 601 814 601 771.2 601C728.3 601 685.7 601 642.8 601C600 601 557 601 514.2 601C471.3 601 428.7 601 385.8 601C343 601 300 601 257.2 601C214.3 601 171.7 601 128.8 601C86 601 43 601 21.5 601L0 601Z" fill="#d53867"></path><path d="M0 559L21.5 560.7C43 562.3 86 565.7 128.8 565.8C171.7 566 214.3 563 257.2 560C300 557 343 554 385.8 554.3C428.7 554.7 471.3 558.3 514.2 561.3C557 564.3 600 566.7 642.8 565C685.7 563.3 728.3 557.7 771.2 553.5C814 549.3 857 546.7 878.5 545.3L900 544L900 601L878.5 601C857 601 814 601 771.2 601C728.3 601 685.7 601 642.8 601C600 601 557 601 514.2 601C471.3 601 428.7 601 385.8 601C343 601 300 601 257.2 601C214.3 601 171.7 601 128.8 601C86 601 43 601 21.5 601L0 601Z" fill="#ce2e68"></path><path d="M0 578L21.5 579.7C43 581.3 86 584.7 128.8 582.8C171.7 581 214.3 574 257.2 573.5C300 573 343 579 385.8 579.3C428.7 579.7 471.3 574.3 514.2 575C557 575.7 600 582.3 642.8 583C685.7 583.7 728.3 578.3 771.2 573.7C814 569 857 565 878.5 563L900 561L900 601L878.5 601C857 601 814 601 771.2 601C728.3 601 685.7 601 642.8 601C600 601 557 601 514.2 601C471.3 601 428.7 601 385.8 601C343 601 300 601 257.2 601C214.3 601 171.7 601 128.8 601C86 601 43 601 21.5 601L0 601Z" fill="#c62368"></path></svg>